<?xml version="1.0" encoding="utf-8"?>
<!-- Generator: Adobe Illustrator 26.5.0, SVG Export Plug-In . SVG Version: 6.00 Build 0)  -->
<svg version="1.1" id="Camada_1" xmlns="http://www.w3.org/2000/svg" xmlns:xlink="http://www.w3.org/1999/xlink" x="0px" y="0px"
	 viewBox="0 0 64 64" style="enable-background:new 0 0 64 64;" xml:space="preserve">
<style type="text/css">
	.st0{fill:#1A2A33;}
	.st1{fill:none;stroke:#31C3BD;stroke-width:2;}
</style>
<g id="XMLID_00000118390607040410512980000007693056406440672143_">
	<g>
		<path class="st0" d="M62.2,11.5c0.4,0.4,0.6,0.9,0.6,1.4s-0.2,1-0.6,1.4L44.4,32l17.7,17.7c0.4,0.4,0.6,0.9,0.6,1.4
			c0,0.5-0.2,1-0.6,1.4l-9.6,9.6c-0.4,0.4-0.9,0.6-1.4,0.6c-0.5,0-1-0.2-1.4-0.6L32,44.4L14.3,62.1c-0.4,0.4-0.9,0.6-1.4,0.6
			c-0.5,0-1-0.2-1.4-0.6l-9.6-9.6c-0.4-0.4-0.6-0.9-0.6-1.4c0-0.5,0.2-1,0.6-1.4L19.6,32L1.9,14.3c-0.4-0.4-0.6-0.9-0.6-1.4
			c0-0.5,0.2-1,0.6-1.4l9.6-9.6c0.4-0.4,0.9-0.6,1.4-0.6s1,0.2,1.4,0.6L32,19.6L49.7,1.9c0.4-0.4,0.9-0.6,1.4-0.6
			c0.5,0,1,0.2,1.4,0.6L62.2,11.5z"/>
	</g>
	<g>
		<path class="st1" d="M51.1,1.3c0.5,0,1,0.2,1.4,0.6l9.6,9.6c0.4,0.4,0.6,0.9,0.6,1.4s-0.2,1-0.6,1.4L44.4,32l17.7,17.7
			c0.4,0.4,0.6,0.9,0.6,1.4c0,0.5-0.2,1-0.6,1.4l-9.6,9.6c-0.4,0.4-0.9,0.6-1.4,0.6c-0.5,0-1-0.2-1.4-0.6L32,44.4L14.3,62.1
			c-0.4,0.4-0.9,0.6-1.4,0.6c-0.5,0-1-0.2-1.4-0.6l-9.6-9.6c-0.4-0.4-0.6-0.9-0.6-1.4c0-0.5,0.2-1,0.6-1.4L19.6,32L1.9,14.3
			c-0.4-0.4-0.6-0.9-0.6-1.4c0-0.5,0.2-1,0.6-1.4l9.6-9.6c0.4-0.4,0.9-0.6,1.4-0.6s1,0.2,1.4,0.6L32,19.6L49.7,1.9
			C50.1,1.5,50.6,1.3,51.1,1.3z"/>
	</g>
</g>
</svg>
