<?xml version="1.0" encoding="utf-8"?>
<!-- Generator: Adobe Illustrator 26.5.0, SVG Export Plug-In . SVG Version: 6.00 Build 0)  -->
<svg version="1.1" id="Camada_1" xmlns="http://www.w3.org/2000/svg" xmlns:xlink="http://www.w3.org/1999/xlink" x="0px" y="0px"
	 viewBox="0 0 64 64" style="enable-background:new 0 0 64 64;" xml:space="preserve">
<style type="text/css">
	.st0{fill-rule:evenodd;clip-rule:evenodd;fill:#1A2A33;}
</style>
<path class="st0" d="M15,1.1l17,17l17-17c1.2-1.2,3.1-1.2,4.2,0c0,0,0,0,0,0l9.6,9.6c1.2,1.2,1.2,3.1,0,4.2c0,0,0,0,0,0l-17,17
	l17,17c1.2,1.2,1.2,3.1,0,4.2c0,0,0,0,0,0l-9.6,9.6c-1.2,1.2-3.1,1.2-4.2,0c0,0,0,0,0,0l-17-17l-17,17c-1.2,1.2-3.1,1.2-4.2,0
	c0,0,0,0,0,0l-9.6-9.6C0,52.1,0,50.2,1.1,49c0,0,0,0,0,0l17-17l-17-17c-1.2-1.2-1.2-3.1,0-4.2c0,0,0,0,0,0l9.6-9.6
	C11.9,0,13.8,0,15,1.1C15,1.1,15,1.1,15,1.1z"/>
</svg>
